<svg width="187" height="187" viewBox="0 0 187 187" fill="none" xmlns="http://www.w3.org/2000/svg">
<path d="M150.011 82.5289C151.989 82.5289 153.592 80.9256 153.592 78.9478C153.592 76.97 151.989 75.3667 150.011 75.3667C148.033 75.3667 146.43 76.97 146.43 78.9478C146.43 80.9256 148.033 82.5289 150.011 82.5289Z" fill="#F3F3F3"/>
<path d="M93.1076 157.708C128.263 157.708 156.762 146.528 156.762 132.737C156.762 118.946 128.263 107.766 93.1076 107.766C57.9522 107.766 29.4531 118.946 29.4531 132.737C29.4531 146.528 57.9522 157.708 93.1076 157.708Z" fill="#F3F3F3"/>
<path d="M91.0579 42.8145L88.4131 59.394H71.2266L91.0579 42.8145Z" fill="#2023D6"/>
<path d="M88.4109 59.782H71.2244C71.0606 59.782 70.9158 59.6803 70.8589 59.5268C70.8037 59.3734 70.8503 59.201 70.9744 59.0975L90.8058 42.5162C90.9299 42.4127 91.1058 42.3972 91.2454 42.4765C91.3868 42.5558 91.4627 42.7145 91.4368 42.8748L88.7919 59.4561C88.7644 59.6441 88.6023 59.782 88.4109 59.782ZM72.2934 59.0061H88.0799L90.5092 43.7766L72.2934 59.0061Z" fill="#F3F3F3"/>
<path d="M92.6462 73.9822C92.5272 73.9822 92.4082 73.927 92.3324 73.8236L91.2858 72.396C91.1686 72.2356 91.191 72.0115 91.3393 71.877C91.4875 71.7442 91.7134 71.7442 91.86 71.8804C91.8669 71.8873 91.8755 71.8942 91.8824 71.9028C91.8893 71.9097 91.8962 71.9184 91.9013 71.9253C91.9186 71.9459 91.9375 71.9735 91.9565 71.9994L92.9583 73.3649C93.0841 73.5374 93.0479 73.7805 92.8755 73.9063C92.8065 73.958 92.7272 73.9822 92.6462 73.9822Z" fill="#F3F3F3"/>
<mask id="mask0_14107_52416" style="mask-type:luminance" maskUnits="userSpaceOnUse" x="91" y="71" width="3" height="3">
<path d="M92.6462 73.9822C92.5272 73.9822 92.4082 73.927 92.3324 73.8236L91.2858 72.396C91.1686 72.2356 91.191 72.0115 91.3393 71.877C91.4875 71.7442 91.7134 71.7442 91.86 71.8804C91.8669 71.8873 91.8755 71.8942 91.8824 71.9028C91.8893 71.9097 91.8962 71.9184 91.9013 71.9253C91.9186 71.9459 91.9375 71.9735 91.9565 71.9994L92.9583 73.3649C93.0841 73.5374 93.0479 73.7805 92.8755 73.9063C92.8065 73.958 92.7272 73.9822 92.6462 73.9822Z" fill="white"/>
</mask>
<g mask="url(#mask0_14107_52416)">
<path d="M92.4308 73.1991L96.7792 79.1268C96.5206 78.7733 96.2447 78.4302 95.9516 78.0957C92.736 74.4319 88.048 72.5991 83.0686 72.5991C80.9082 72.5991 78.6944 72.9439 76.5202 73.6336L72.1719 67.7059C74.346 67.0162 76.5599 66.6714 78.7203 66.6714C83.6996 66.6714 88.3877 68.5042 91.6032 72.168C91.8963 72.5025 92.1722 72.8456 92.4308 73.1991Z" fill="#787070"/>
<path d="M96.779 79.5149C96.6601 79.5149 96.5411 79.4598 96.4652 79.3563C96.2135 79.0115 95.9411 78.6736 95.6583 78.3511C92.6221 74.8925 88.1513 72.9873 83.0668 72.9873C80.9236 72.9873 78.7615 73.3286 76.6356 74.0028C76.477 74.0528 76.3046 73.9959 76.2046 73.8631L71.8562 67.9354C71.7821 67.8354 71.7614 67.7044 71.801 67.5854C71.839 67.4665 71.9338 67.3734 72.0528 67.3354C74.2545 66.6371 76.496 66.2837 78.7184 66.2837C84.0288 66.2837 88.7082 68.282 91.8928 71.9114C92.191 72.251 92.4755 72.6079 92.7428 72.97L97.0877 78.8942C97.0894 78.896 97.0894 78.8977 97.0911 78.8977C97.217 79.0701 97.1808 79.3132 97.0084 79.4408C96.9394 79.4908 96.8601 79.5149 96.779 79.5149ZM83.0685 72.2114C87.0496 72.2114 90.6755 73.3355 93.5842 75.4269L92.1186 73.4286C91.8669 73.0838 91.5945 72.7459 91.3117 72.4234C88.2755 68.9648 83.8047 67.0596 78.7201 67.0596C76.7511 67.0596 74.7649 67.3475 72.808 67.9182L76.6684 73.1821C78.7839 72.5372 80.9357 72.2114 83.0685 72.2114Z" fill="#F3F3F3"/>
</g>
<path d="M69.6469 100.583C69.54 100.583 69.4348 100.54 69.3573 100.453L69.2969 100.384C69.0969 100.155 68.9055 99.9172 68.7279 99.6758L64.3796 93.7481C64.2537 93.5757 64.2899 93.3326 64.4623 93.2067C64.6348 93.0809 64.8779 93.1171 65.0055 93.2895L65.0089 93.2947C65.1727 93.5171 65.3486 93.7361 65.5331 93.9464L65.5882 94.0085C65.5968 94.0188 65.6055 94.0274 65.6124 94.0378L69.9607 99.9655C70.0831 100.133 70.0538 100.365 69.8917 100.497C69.8193 100.555 69.7314 100.583 69.6469 100.583Z" fill="#F3F3F3"/>
<mask id="mask1_14107_52416" style="mask-type:luminance" maskUnits="userSpaceOnUse" x="64" y="93" width="7" height="8">
<path d="M69.6469 100.583C69.54 100.583 69.4348 100.54 69.3573 100.453L69.2969 100.384C69.0969 100.155 68.9055 99.9172 68.7279 99.6758L64.3796 93.7481C64.2537 93.5757 64.2899 93.3326 64.4623 93.2067C64.6348 93.0809 64.8779 93.1171 65.0055 93.2895L65.0089 93.2947C65.1727 93.5171 65.3486 93.7361 65.5331 93.9464L65.5882 94.0085C65.5968 94.0188 65.6055 94.0274 65.6124 94.0378L69.9607 99.9655C70.0831 100.133 70.0538 100.365 69.8917 100.497C69.8193 100.555 69.7314 100.583 69.6469 100.583Z" fill="white"/>
</mask>
<g mask="url(#mask1_14107_52416)">
<g opacity="0.6">
<path d="M65.6177 94.6053L69.9661 100.533C69.8385 100.402 69.7126 100.267 69.5919 100.129C69.3971 99.9088 69.2144 99.6795 69.0437 99.4467L64.6953 93.519C64.866 93.7518 65.0488 93.9811 65.2436 94.2018C65.3643 94.3397 65.4902 94.4742 65.6177 94.6053Z" fill="#711E00"/>
<path d="M69.9642 100.921C69.8624 100.921 69.7624 100.881 69.6866 100.803C69.5521 100.667 69.421 100.526 69.2969 100.384C69.0969 100.157 68.9055 99.9189 68.7279 99.6758L64.3796 93.7481C64.2537 93.5757 64.2899 93.3326 64.4623 93.2067C64.6348 93.0809 64.8779 93.1171 65.0055 93.2895L65.0089 93.2947C65.1727 93.5171 65.3486 93.7361 65.533 93.9464C65.6486 94.0774 65.7693 94.2085 65.8934 94.3343C65.9072 94.3481 65.9175 94.3619 65.9296 94.3757L70.278 100.303C70.3987 100.467 70.3711 100.697 70.2159 100.829C70.1435 100.891 70.0538 100.921 69.9642 100.921Z" fill="#F3F3F3"/>
</g>
</g>
<path d="M69.961 100.921C69.8593 100.921 69.7593 100.881 69.6834 100.803C69.5714 100.689 69.461 100.572 69.3541 100.452C69.3507 100.446 69.3455 100.443 69.342 100.438C69.2972 100.383 69.2455 100.31 69.1972 100.243L69.1438 100.169L64.9816 94.4945C64.8592 94.3273 64.8885 94.0945 65.0506 93.9635C65.2109 93.8325 65.4454 93.8514 65.5834 94.0066C65.6834 94.117 65.7851 94.2256 65.8885 94.3325C65.9006 94.3463 65.9127 94.3601 65.9247 94.3739L70.2731 100.302C70.3938 100.465 70.3662 100.695 70.211 100.827C70.1386 100.891 70.0507 100.921 69.961 100.921Z" fill="#F3F3F3"/>
<mask id="mask2_14107_52416" style="mask-type:luminance" maskUnits="userSpaceOnUse" x="64" y="93" width="7" height="8">
<path d="M69.961 100.921C69.8593 100.921 69.7593 100.881 69.6834 100.803C69.5714 100.689 69.461 100.572 69.3541 100.452C69.3507 100.446 69.3455 100.443 69.342 100.438C69.2972 100.383 69.2455 100.31 69.1972 100.243L69.1438 100.169L64.9816 94.4945C64.8592 94.3273 64.8885 94.0945 65.0506 93.9635C65.2109 93.8325 65.4454 93.8514 65.5834 94.0066C65.6834 94.117 65.7851 94.2256 65.8885 94.3325C65.9006 94.3463 65.9127 94.3601 65.9247 94.3739L70.2731 100.302C70.3938 100.465 70.3662 100.695 70.211 100.827C70.1386 100.891 70.0507 100.921 69.961 100.921Z" fill="white"/>
</mask>
<g mask="url(#mask2_14107_52416)">
<g opacity="0.6">
<path d="M65.6177 94.6053L69.9661 100.533C69.8385 100.402 69.7126 100.267 69.5919 100.129C69.3971 99.9088 69.2144 99.6795 69.0437 99.4467L64.6953 93.519C64.866 93.7518 65.0488 93.9811 65.2436 94.2018C65.3643 94.3397 65.4902 94.4742 65.6177 94.6053Z" fill="#711E00"/>
<path d="M69.9642 100.921C69.8624 100.921 69.7624 100.881 69.6866 100.803C69.5521 100.667 69.421 100.526 69.2969 100.384C69.0969 100.157 68.9055 99.9189 68.7279 99.6758L64.3796 93.7481C64.2537 93.5757 64.2899 93.3326 64.4623 93.2067C64.6348 93.0809 64.8779 93.1171 65.0055 93.2895L65.0089 93.2947C65.1727 93.5171 65.3486 93.7361 65.533 93.9464C65.6486 94.0774 65.7693 94.2085 65.8934 94.3343C65.9072 94.3481 65.9175 94.3619 65.9296 94.3757L70.278 100.303C70.3987 100.467 70.3711 100.697 70.2159 100.829C70.1435 100.891 70.0538 100.921 69.9642 100.921Z" fill="#F3F3F3"/>
</g>
</g>
<path d="M88.1781 87.322C88.0747 87.6496 87.9557 87.9789 87.8247 88.303C87.5436 88.9996 87.2023 89.6841 86.8005 90.3479C86.6074 90.6669 86.4023 90.9824 86.1798 91.2927C85.4281 92.3531 84.5143 93.3497 83.4453 94.2411C80.5366 96.6739 77.04 97.8877 73.7365 97.8877C70.4347 97.8877 67.3261 96.6721 65.195 94.2411C60.9277 89.3789 62.1846 81.4995 68.0002 76.6408C70.9089 74.208 74.4055 72.9941 77.709 72.9941C81.0108 72.9941 84.1195 74.2097 86.2505 76.6408C86.3126 76.7114 86.3712 76.7804 86.4264 76.8511C86.704 77.1856 86.9592 77.5356 87.1868 77.8925C87.5988 78.5408 87.9247 79.2218 88.1764 79.9356C88.3057 80.2977 88.4126 80.6684 88.4971 81.0443C88.9644 83.0547 88.8454 85.2202 88.1781 87.322Z" fill="#C4CEFF"/>
<path d="M88.4963 81.0442H77.1237C75.9237 81.0442 75.0978 80.108 75.284 78.9494C75.4685 77.7907 76.5909 76.8545 77.7927 76.8545H86.4273C86.7049 77.189 86.9601 77.539 87.1877 77.8959C87.5998 78.5442 87.9256 79.2252 88.1773 79.939C88.3049 80.2977 88.4118 80.6683 88.4963 81.0442Z" fill="#2023D6"/>
<path d="M88.1728 87.322C88.0693 87.6496 87.9504 87.9789 87.8193 88.3031C87.5383 88.9997 87.1969 89.6841 86.7952 90.3479C86.6021 90.6669 86.3969 90.9824 86.1745 91.2928H75.3674C74.2277 91.2928 73.4518 90.4031 73.626 89.3065C73.8018 88.21 74.8639 87.3203 76.0002 87.3203H88.1728V87.322Z" fill="#2023D6"/>
<path d="M91.4106 42.5264H139.386L138.653 47.123L126.046 126.169H65.3515H60.5859L64.3981 102.262C66.9085 103.562 69.774 104.212 72.7413 104.212C76.7293 104.212 80.9035 103.038 84.6605 100.688H118.299C118.883 100.688 119.427 100.233 119.518 99.6687C119.608 99.1084 119.208 98.6532 118.625 98.6532H87.4485C90.2968 96.2531 92.4089 93.3703 93.7399 90.3254H119.952C120.537 90.3254 121.08 89.8703 121.17 89.3099C121.259 88.7478 120.859 88.2909 120.277 88.2909H94.5089C95.3934 85.5167 95.6382 82.6667 95.2175 79.9632H121.604C122.189 79.9632 122.732 79.508 122.821 78.9477C122.911 78.3856 122.511 77.9287 121.928 77.9287H94.7641C94.1503 75.8373 93.1037 73.8786 91.6054 72.1665C88.3899 68.5027 83.7018 66.6699 78.7224 66.6699C75.7569 66.6699 72.6896 67.3199 69.7654 68.6182L71.2361 59.3922H88.4226L91.0675 42.8143L91.4106 42.5264ZM116.647 111.048C117.232 111.048 117.775 110.593 117.866 110.029C117.956 109.469 117.556 109.014 116.973 109.014H76.05C75.4689 109.014 74.9241 109.469 74.8345 110.029C74.7448 110.591 75.1448 111.048 75.7258 111.048H116.647ZM123.258 69.6027C123.842 69.6027 124.385 69.1475 124.475 68.5871C124.565 68.0251 124.165 67.5682 123.582 67.5682H95.8417C95.2589 67.5682 94.7158 68.0233 94.6262 68.5871C94.5365 69.1475 94.9331 69.6027 95.5175 69.6027H123.258Z" fill="#F3F3F3"/>
<path d="M126.042 126.555H60.5827C60.4689 126.555 60.362 126.505 60.2879 126.419C60.2138 126.333 60.1827 126.219 60.2 126.107L64.0138 102.2C64.0328 102.077 64.1104 101.971 64.2224 101.915C64.3328 101.858 64.4656 101.86 64.5759 101.917C66.9863 103.165 69.8087 103.824 72.7398 103.824C76.7796 103.824 80.8296 102.626 84.4521 100.358C84.5142 100.32 84.5849 100.3 84.6573 100.3H118.296C118.689 100.3 119.072 99.9825 119.13 99.6084C119.154 99.4567 119.12 99.3153 119.032 99.2118C118.939 99.1015 118.792 99.0411 118.62 99.0411H87.4452C87.2815 99.0411 87.1366 98.9394 87.0814 98.786C87.0263 98.6325 87.0711 98.4618 87.1952 98.3567C89.8953 96.0808 92.035 93.2497 93.3815 90.1703C93.4436 90.0289 93.5833 89.9375 93.7367 89.9375H119.949C120.342 89.9375 120.725 89.622 120.784 89.2479C120.808 89.0944 120.773 88.953 120.685 88.8496C120.592 88.7393 120.446 88.6789 120.273 88.6789H94.5057C94.3816 88.6789 94.266 88.6203 94.1919 88.5203C94.1195 88.4203 94.0988 88.291 94.135 88.1737C94.9988 85.4651 95.2385 82.646 94.8299 80.0236C94.8126 79.9115 94.8454 79.7977 94.9178 79.7115C94.9902 79.6253 95.0988 79.5753 95.2126 79.5753H121.599C121.992 79.5753 122.375 79.2598 122.434 78.8856C122.458 78.7322 122.423 78.5908 122.335 78.4874C122.242 78.377 122.096 78.3167 121.923 78.3167H94.7609C94.5885 78.3167 94.4367 78.2029 94.3885 78.0373C93.7747 75.9425 92.7384 74.0528 91.3091 72.4217C88.2729 68.9631 83.8021 67.0579 78.7175 67.0579C75.7795 67.0579 72.7364 67.7199 69.9174 68.9734C69.7863 69.0303 69.6363 69.0131 69.5225 68.9269C69.4087 68.8406 69.3536 68.6993 69.376 68.5579L70.8467 59.3319C70.876 59.1439 71.0398 59.0043 71.2295 59.0043H88.0849L90.6763 42.7523C90.6901 42.6609 90.7384 42.5764 90.8091 42.5161L91.1539 42.2247C91.2246 42.1661 91.3126 42.1333 91.4039 42.1333H139.382C139.496 42.1333 139.603 42.1833 139.677 42.2695C139.751 42.3557 139.782 42.4695 139.765 42.5816L126.425 126.224C126.396 126.417 126.234 126.555 126.042 126.555ZM61.0362 125.78H125.711L138.927 42.9126H91.5488L91.4229 43.0195L88.8022 59.456C88.7729 59.6439 88.6091 59.7836 88.4194 59.7836H71.5639L70.2553 67.9889C72.9881 66.8716 75.8985 66.2837 78.7192 66.2837C84.0297 66.2837 88.7091 68.282 91.8936 71.9114C93.3333 73.5562 94.3936 75.4477 95.0488 77.5408H121.927C122.323 77.5408 122.689 77.7029 122.929 77.9839C123.167 78.2632 123.265 78.627 123.203 79.0081C123.082 79.7615 122.379 80.3512 121.601 80.3512H95.6609C95.9747 82.7978 95.7575 85.3892 95.0281 87.903H120.273C120.67 87.903 121.035 88.0651 121.275 88.3461C121.513 88.6255 121.611 88.9893 121.549 89.3703C121.429 90.1238 120.725 90.7134 119.948 90.7134H93.9885C92.7246 93.51 90.8315 96.098 88.4729 98.2653H118.62C119.016 98.2653 119.382 98.4273 119.622 98.7084C119.86 98.9877 119.956 99.3498 119.896 99.7308C119.775 100.484 119.072 101.076 118.294 101.076H84.7676C81.0451 103.383 76.8882 104.6 72.7381 104.6C69.8743 104.6 67.107 103.995 64.6949 102.843L61.0362 125.78ZM116.644 111.436H75.7226C75.3278 111.436 74.9623 111.276 74.7226 110.993C74.4847 110.714 74.3864 110.35 74.4485 109.967C74.5692 109.214 75.2709 108.624 76.0468 108.624H116.968C117.365 108.624 117.73 108.786 117.97 109.067C118.208 109.346 118.304 109.709 118.244 110.09C118.125 110.845 117.422 111.436 116.644 111.436ZM76.0468 109.402C75.6554 109.402 75.2744 109.717 75.214 110.091C75.1899 110.245 75.2243 110.388 75.3123 110.491C75.4054 110.602 75.5519 110.662 75.7209 110.662H116.642C117.035 110.662 117.418 110.345 117.477 109.971C117.501 109.819 117.466 109.678 117.379 109.574C117.285 109.464 117.139 109.403 116.966 109.403H76.0468V109.402ZM123.254 69.9907H95.5143C95.1178 69.9907 94.754 69.8303 94.5143 69.5493C94.2764 69.27 94.1798 68.9079 94.2402 68.5268C94.3609 67.7717 95.0626 67.182 95.8385 67.182H123.579C123.975 67.182 124.341 67.3441 124.58 67.6251C124.818 67.9044 124.917 68.2682 124.854 68.6493C124.736 69.401 124.032 69.9907 123.254 69.9907ZM95.8385 67.9562C95.4471 67.9562 95.0661 68.2734 95.0057 68.6475C94.9816 68.801 95.0161 68.9424 95.104 69.0441C95.1971 69.1527 95.3419 69.2131 95.5143 69.2131H123.254C123.648 69.2131 124.03 68.8975 124.089 68.5234C124.113 68.3699 124.079 68.2286 123.991 68.1251C123.898 68.0148 123.751 67.9544 123.579 67.9544H95.8385V67.9562Z" fill="#F3F3F3"/>
<g opacity="0.5">
<g opacity="0.6">
<path d="M68.5361 76.2803L68.1241 78.8682C68.0603 78.9165 67.9965 78.9648 67.9344 79.0182C66.5326 80.1872 66.2309 82.0873 67.2585 83.258C67.3034 83.3097 67.3516 83.3597 67.4016 83.4063L65.6154 94.603C65.4878 94.472 65.3619 94.3375 65.2413 94.1995C63.1205 91.7805 62.3722 88.6098 62.8791 85.4408C63.3843 82.27 65.143 79.101 68.0361 76.6837C68.1982 76.5458 68.3672 76.4113 68.5361 76.2803Z" fill="#2023D6"/>
</g>
</g>
<path d="M120.271 88.291C120.856 88.291 121.254 88.7462 121.164 89.31C121.074 89.8703 120.53 90.3255 119.947 90.3255H93.7344C94.0292 89.6548 94.2861 88.9755 94.5016 88.291H120.271Z" fill="#B5B5B5"/>
<path d="M119.943 90.7135H93.7307C93.5997 90.7135 93.4773 90.6479 93.4066 90.5376C93.3359 90.4272 93.3238 90.2893 93.3756 90.1703C93.6669 89.5048 93.9204 88.8341 94.129 88.1755C94.179 88.0134 94.329 87.9048 94.4997 87.9048H120.267C120.664 87.9048 121.029 88.0669 121.269 88.3479C121.507 88.6272 121.605 88.991 121.543 89.372C121.424 90.1238 120.721 90.7135 119.943 90.7135ZM94.317 89.9376H119.943C120.336 89.9376 120.719 89.6221 120.778 89.2479C120.802 89.0945 120.767 88.9531 120.679 88.8496C120.586 88.7393 120.44 88.6789 120.267 88.6789H94.7808C94.6428 89.0962 94.4876 89.5169 94.317 89.9376Z" fill="#B5B5B5"/>
<path d="M118.622 98.6514C119.207 98.6514 119.605 99.1065 119.515 99.6669C119.426 100.229 118.881 100.686 118.296 100.686H84.6562C85.589 100.103 86.4959 99.4462 87.3666 98.7186C87.3925 98.6962 87.4201 98.6738 87.446 98.6531H118.622V98.6514Z" fill="#B5B5B5"/>
<path d="M118.294 101.074H84.6533C84.4809 101.074 84.3275 100.96 84.2809 100.793C84.2326 100.627 84.3016 100.448 84.4481 100.357C85.374 99.7772 86.2706 99.1255 87.1154 98.4203L87.1878 98.36C87.2585 98.3013 87.3516 98.2651 87.443 98.2651H118.619C119.016 98.2651 119.381 98.4272 119.621 98.7082C119.859 98.9876 119.956 99.3496 119.895 99.7307C119.775 100.482 119.073 101.074 118.294 101.074ZM85.9396 100.298H118.294C118.687 100.298 119.069 99.9807 119.128 99.6065C119.152 99.4548 119.118 99.3134 119.03 99.21C118.937 99.0996 118.79 99.0393 118.618 99.0393H87.5827C87.0551 99.4807 86.5051 99.9014 85.9396 100.298Z" fill="#B5B5B5"/>
<path d="M143.301 47.8644L142.687 51.7196L142.568 52.4627L130.08 130.762H63.9567L60.5859 126.167H126.046L138.653 47.1247L139.387 42.5264L143.301 47.8644Z" fill="#B5B5B5"/>
<path d="M130.077 131.15H63.9551C63.831 131.15 63.7154 131.092 63.643 130.992L60.2706 126.397C60.1843 126.28 60.1706 126.123 60.2378 125.992C60.3033 125.861 60.4378 125.78 60.5844 125.78H125.713L138.268 47.0628L139.003 42.4644C139.027 42.3093 139.143 42.1851 139.294 42.1489C139.446 42.1127 139.606 42.1696 139.698 42.2972L143.612 47.6352C143.674 47.718 143.698 47.8231 143.682 47.9249L142.95 52.5232L130.46 130.825C130.429 131.012 130.267 131.15 130.077 131.15ZM64.1499 130.375H129.744L142.182 52.4008L142.889 47.9628L139.62 43.5041L139.032 47.1852L126.425 126.228C126.396 126.416 126.232 126.555 126.042 126.555H61.3482L64.1499 130.375Z" fill="#F3F3F3"/>
<path d="M134.112 135.36L138.46 141.288H72.9968L68.6484 135.36H134.112Z" fill="#B5B5B5"/>
<path d="M138.457 141.676H72.9935C72.8693 141.676 72.7538 141.618 72.6814 141.518L68.3331 135.59C68.2468 135.473 68.2331 135.316 68.3003 135.185C68.3658 135.054 68.5003 134.973 68.6469 134.973H134.11C134.234 134.973 134.35 135.031 134.422 135.131L138.77 141.059C138.857 141.176 138.87 141.333 138.803 141.464C138.736 141.593 138.603 141.676 138.457 141.676ZM73.19 140.9H137.691L133.912 135.749H69.4107L73.19 140.9Z" fill="#F3F3F3"/>
<path d="M147.451 51.7192L134.112 135.36H68.6484L69.3812 130.762H130.079L142.684 51.7192H147.451Z" fill="#F3F3F3"/>
<path d="M134.108 135.748H68.6452C68.5314 135.748 68.4245 135.698 68.3504 135.612C68.2763 135.526 68.2452 135.412 68.2625 135.3L68.9952 130.704C69.0245 130.516 69.1883 130.376 69.378 130.376H129.745L142.298 51.6591C142.327 51.4712 142.491 51.3315 142.681 51.3315H147.448C147.562 51.3315 147.669 51.3815 147.743 51.4678C147.817 51.554 147.848 51.6678 147.831 51.7798L134.491 135.421C134.462 135.609 134.3 135.748 134.108 135.748ZM69.1004 134.973H133.777L146.993 52.1074H143.012L130.458 130.824C130.429 131.012 130.265 131.152 130.076 131.152H69.709L69.1004 134.973Z" fill="#F3F3F3"/>
<path d="M147.449 51.7197L151.798 57.6474L138.458 141.288L134.109 135.361L147.449 51.7197Z" fill="#B5B5B5"/>
<path d="M138.454 141.677C138.332 141.677 138.216 141.62 138.142 141.518L133.794 135.59C133.732 135.507 133.708 135.402 133.723 135.299L147.063 51.6578C147.087 51.5026 147.203 51.3785 147.355 51.3423C147.506 51.3061 147.667 51.363 147.758 51.4906L152.106 57.4182C152.168 57.501 152.193 57.6062 152.177 57.7096L138.837 141.351C138.813 141.506 138.698 141.63 138.546 141.666C138.515 141.673 138.484 141.677 138.454 141.677ZM134.515 135.261L138.216 140.309L151.384 57.7458L147.682 52.6975L134.515 135.261Z" fill="#F3F3F3"/>
<path d="M62.057 100.777L39.4669 119.662C39.4135 119.707 39.3583 119.747 39.3031 119.788C39.2773 119.807 39.2531 119.826 39.2273 119.845C39.1825 119.876 39.1359 119.904 39.0911 119.933C39.0583 119.954 39.0256 119.976 38.9928 119.995C38.9687 120.009 38.9428 120.021 38.9187 120.035C38.8583 120.067 38.7962 120.1 38.7342 120.128C38.7118 120.138 38.6893 120.147 38.6669 120.155C38.5842 120.191 38.5014 120.222 38.4186 120.25C38.3807 120.264 38.3411 120.276 38.3014 120.288C38.2704 120.297 38.2376 120.307 38.2066 120.314C38.1566 120.326 38.1066 120.338 38.0566 120.348C38.0255 120.355 37.9945 120.36 37.9652 120.366C37.91 120.374 37.8566 120.381 37.8014 120.388C37.7755 120.391 37.7497 120.395 37.7238 120.397C37.6445 120.404 37.5635 120.407 37.4841 120.407C36.8083 120.407 36.1738 120.159 35.7376 119.662L34.9324 118.745C34.8927 118.7 34.8565 118.654 34.8203 118.605L39.1687 124.533C39.2031 124.581 39.2411 124.628 39.2807 124.673L40.0859 125.59C40.5221 126.086 41.1566 126.335 41.8325 126.335C41.9118 126.335 41.9911 126.331 42.0722 126.324C42.098 126.323 42.1239 126.317 42.1497 126.316C42.2049 126.309 42.2584 126.302 42.3135 126.293C42.3446 126.288 42.3756 126.281 42.4049 126.276C42.4549 126.266 42.5049 126.255 42.5549 126.242C42.5877 126.233 42.6187 126.224 42.6498 126.216C42.6722 126.209 42.6963 126.204 42.7187 126.197C42.7342 126.192 42.7498 126.185 42.767 126.178C42.8515 126.15 42.9342 126.117 43.0153 126.083C43.0308 126.076 43.048 126.071 43.0653 126.064C43.0722 126.061 43.0773 126.057 43.0842 126.055C43.1463 126.026 43.2067 125.995 43.2687 125.962C43.2911 125.95 43.3136 125.942 43.336 125.928C43.3394 125.926 43.3411 125.924 43.3429 125.923C43.3756 125.904 43.4084 125.881 43.4411 125.861C43.4825 125.835 43.5256 125.811 43.567 125.781C43.5705 125.779 43.5739 125.776 43.5774 125.773C43.6032 125.755 43.6274 125.735 43.6532 125.716C43.6946 125.685 43.7377 125.655 43.7774 125.623C43.7912 125.612 43.8032 125.602 43.817 125.59L66.407 106.705L62.057 100.777Z" fill="#2C25B8"/>
<path d="M41.8288 126.723C41.0116 126.723 40.2874 126.411 39.7909 125.845L38.9857 124.928C38.9391 124.874 38.8943 124.819 38.8529 124.762L34.5063 118.838C34.5063 118.836 34.5046 118.836 34.5046 118.835C34.3787 118.662 34.4149 118.419 34.5873 118.293C34.7598 118.167 35.0029 118.204 35.1287 118.376L35.1305 118.379C35.158 118.417 35.1874 118.454 35.2184 118.49L36.0236 119.407C36.3701 119.802 36.8874 120.019 37.4788 120.019C37.5477 120.019 37.615 120.016 37.6839 120.009L37.7529 120C37.7995 119.995 37.846 119.99 37.8943 119.981C37.9133 119.978 37.934 119.974 37.9529 119.969L37.9753 119.964C38.0184 119.955 38.0633 119.945 38.1064 119.935C38.134 119.928 38.1633 119.919 38.1909 119.912C38.2253 119.902 38.2581 119.892 38.2926 119.88C38.365 119.855 38.4374 119.828 38.5098 119.797L38.5684 119.773C38.6236 119.747 38.6771 119.719 38.7305 119.69L38.796 119.655C38.8098 119.647 38.8253 119.638 38.8391 119.628L38.9116 119.581C38.9426 119.562 38.9719 119.543 39.0029 119.523C39.0133 119.516 39.0236 119.507 39.034 119.498L39.084 119.461C39.1271 119.428 39.1719 119.397 39.2133 119.361L61.8033 100.476C61.8861 100.407 61.993 100.376 62.0982 100.388C62.205 100.4 62.2999 100.457 62.3637 100.543L66.712 106.471C66.8327 106.636 66.8051 106.867 66.6482 106.998L44.0168 125.924C43.9806 125.954 43.9444 125.981 43.9065 126.007L43.8565 126.043C43.8358 126.059 43.8151 126.074 43.7944 126.09C43.7478 126.123 43.7116 126.145 43.6754 126.168L43.6116 126.207C43.5875 126.223 43.5634 126.238 43.5392 126.252C43.5323 126.257 43.5254 126.261 43.5185 126.264C43.503 126.273 43.4823 126.283 43.4634 126.292L43.4478 126.299C43.3789 126.335 43.3116 126.371 43.2409 126.404C43.2427 126.404 43.2306 126.409 43.2202 126.414C43.203 126.421 43.184 126.43 43.1651 126.437C43.072 126.476 42.9789 126.512 42.8858 126.543C42.8702 126.55 42.8496 126.557 42.8306 126.564C42.8133 126.569 42.7927 126.574 42.7737 126.58L42.7547 126.585C42.7185 126.595 42.6823 126.605 42.6461 126.614C42.5892 126.628 42.534 126.642 42.4771 126.652L42.4582 126.655C42.4289 126.661 42.4013 126.668 42.372 126.673C42.3099 126.683 42.2478 126.692 42.1875 126.699L42.1651 126.702C42.1426 126.705 42.122 126.707 42.0995 126.709C42.003 126.719 41.9151 126.723 41.8288 126.723ZM36.8598 120.733L39.4805 124.305C39.5081 124.343 39.5392 124.381 39.5702 124.418L40.3754 125.335C40.7616 125.776 41.3685 125.995 42.0357 125.938L42.103 125.93C42.1495 125.924 42.1978 125.919 42.2444 125.911C42.2633 125.907 42.284 125.904 42.303 125.899L42.3237 125.895C42.3685 125.887 42.4116 125.876 42.4547 125.866C42.4823 125.859 42.5099 125.85 42.5392 125.843L42.5978 125.828C42.6082 125.823 42.6254 125.816 42.6409 125.811C42.7133 125.787 42.7875 125.759 42.8599 125.726C42.8737 125.719 42.8892 125.714 42.9047 125.709L42.9168 125.704C42.9737 125.678 43.0271 125.649 43.0823 125.619C43.0961 125.611 43.1116 125.604 43.1254 125.597L43.1375 125.59C43.1409 125.586 43.1461 125.585 43.1496 125.583C43.1616 125.576 43.1771 125.566 43.1927 125.557L43.2737 125.507C43.2978 125.493 43.322 125.478 43.3444 125.462C43.3651 125.447 43.3754 125.44 43.3858 125.431L43.4513 125.381C43.4771 125.362 43.503 125.343 43.5289 125.323L43.5634 125.295L65.8758 106.643L61.9878 101.341L39.7133 119.961C39.6581 120.005 39.6029 120.048 39.546 120.09L39.5081 120.119C39.4874 120.135 39.4685 120.15 39.4478 120.164C39.4064 120.192 39.365 120.217 39.3236 120.243L39.2633 120.281C39.2374 120.298 39.2116 120.314 39.1857 120.33C39.165 120.342 39.1443 120.352 39.1236 120.362L39.1012 120.374C39.034 120.411 38.965 120.447 38.896 120.48C38.8771 120.488 38.8581 120.497 38.8374 120.504L38.8185 120.512C38.7271 120.552 38.634 120.588 38.5391 120.619C38.496 120.635 38.4512 120.648 38.4081 120.661C38.3719 120.671 38.3357 120.681 38.2995 120.69C38.2443 120.704 38.1874 120.717 38.1305 120.728L38.1115 120.731C38.084 120.736 38.0546 120.743 38.0271 120.747C37.965 120.757 37.9046 120.766 37.8426 120.773L37.8184 120.776C37.7977 120.78 37.7753 120.781 37.7529 120.783C37.6564 120.792 37.5667 120.795 37.4805 120.795C37.2667 120.795 37.0581 120.774 36.8598 120.733Z" fill="#F3F3F3"/>
<path d="M95.2134 79.963C95.1065 79.275 94.9547 78.594 94.7582 77.9285C94.1461 75.8353 93.0978 73.8784 91.5995 72.1663C88.3839 68.5025 83.6959 66.6714 78.7165 66.6714C75.7492 66.6714 72.682 67.3197 69.7595 68.6214C67.7698 69.5059 65.8491 70.6887 64.0732 72.1732C56.23 78.7285 53.8903 88.9356 58.0955 96.2633L35.502 115.152C34.3158 116.141 34.0606 117.75 34.9296 118.745L35.7348 119.662C36.1693 120.158 36.8072 120.408 37.4796 120.408C38.1555 120.408 38.871 120.158 39.4624 119.662L62.0542 100.779C62.7921 101.339 63.5749 101.836 64.3939 102.26C66.9043 103.558 69.7698 104.21 72.7371 104.21C76.7268 104.21 80.9011 103.038 84.6546 100.686C85.5891 100.103 86.4943 99.4461 87.446 98.6512C90.2926 96.2495 92.4064 93.3684 93.7375 90.3218C94.0289 89.6545 94.2875 88.9718 94.503 88.2873C95.3875 85.5183 95.6341 82.6648 95.2134 79.963ZM83.4442 94.2425C80.5355 96.6753 77.0389 97.8891 73.7354 97.8891C70.4336 97.8891 67.325 96.6736 65.1939 94.2425C60.9266 89.3804 62.1835 81.5009 67.9991 76.6422C70.9078 74.2094 74.4044 72.9956 77.7079 72.9956C81.0097 72.9956 84.1184 74.2112 86.2494 76.6422C86.3115 76.7129 86.3701 76.7819 86.4253 76.8526C86.7029 77.1871 86.9581 77.5371 87.1856 77.894C87.5977 78.5423 87.9236 79.2233 88.1753 79.9371C88.3046 80.2992 88.4115 80.6699 88.496 81.0458C88.9615 83.0579 88.8443 85.2234 88.1753 87.3235C88.0719 87.651 87.9529 87.9804 87.8219 88.3045C87.5408 89.0011 87.1994 89.6856 86.7977 90.3494C86.6046 90.6683 86.3994 90.9839 86.177 91.2942C85.4287 92.3546 84.5132 93.3511 83.4442 94.2425Z" fill="#0B2DD3"/>
<path d="M37.4769 120.797C36.6596 120.797 35.9354 120.485 35.4406 119.917L34.6354 119C34.1906 118.49 33.9768 117.819 34.032 117.112C34.0992 116.267 34.5423 115.443 35.251 114.853L57.5979 96.1721C55.6306 92.5686 55.1289 88.203 56.1875 83.8374C57.2824 79.3253 59.9945 75.0769 63.8238 71.8752C65.5894 70.3993 67.5343 69.1855 69.6015 68.2665C72.5154 66.9699 75.6671 66.2837 78.7172 66.2837C84.0276 66.2837 88.707 68.282 91.8916 71.9114C93.3985 73.6321 94.4882 75.6201 95.1313 77.8201C95.3295 78.4942 95.4864 79.1943 95.5968 79.9029C96.0244 82.6426 95.7727 85.584 94.8726 88.4065C94.6571 89.091 94.395 89.7875 94.0933 90.4772C92.7002 93.6652 90.4864 96.5928 87.6949 98.948C86.7501 99.7377 85.8225 100.414 84.8587 101.014C81.1172 103.357 76.9258 104.596 72.7361 104.596C69.6826 104.596 66.736 103.907 64.2152 102.603C63.4738 102.221 62.7531 101.772 62.0669 101.272L39.7079 119.96C39.0648 120.498 38.2734 120.797 37.4769 120.797ZM78.7155 67.0596C75.774 67.0596 72.7309 67.7216 69.9153 68.9751C67.9136 69.8648 66.0308 71.0407 64.3204 72.47C56.7099 78.8305 54.2323 88.7565 58.4307 96.0687C58.5238 96.2325 58.4875 96.4394 58.3427 96.5601L35.7475 115.448C35.1992 115.907 34.8544 116.535 34.8044 117.172C34.7647 117.671 34.9113 118.138 35.2182 118.488L36.0234 119.405C36.3699 119.802 36.8855 120.019 37.4769 120.019C38.0907 120.019 38.7079 119.786 39.2114 119.364L61.8031 100.481C61.9428 100.365 62.1428 100.36 62.2876 100.47C63.01 101.02 63.7773 101.507 64.5704 101.915C66.9808 103.162 69.805 103.822 72.7361 103.822C76.7792 103.822 80.8293 102.624 84.4466 100.358C85.3794 99.7756 86.2794 99.1204 87.1949 98.3549C89.895 96.079 92.0329 93.2479 93.3795 90.1686C93.6709 89.503 93.9226 88.8323 94.1312 88.1737C94.995 85.4633 95.2364 82.646 94.8278 80.0236C94.7226 79.3494 94.5744 78.6822 94.3847 78.0408C93.7743 75.9494 92.7381 74.0597 91.3053 72.4234C88.2708 68.9648 83.7983 67.0596 78.7155 67.0596ZM73.7326 98.2773C70.1722 98.2773 67.0342 96.9359 64.898 94.498C62.9911 92.3255 62.0721 89.4496 62.3083 86.3978C62.598 82.6547 64.5808 78.9891 67.7463 76.3442C70.6291 73.9338 74.1654 72.6062 77.7051 72.6062C81.2655 72.6062 84.4035 73.9476 86.5397 76.3856C86.6053 76.4597 86.6673 76.5339 86.7277 76.6097C87.007 76.9459 87.2725 77.3097 87.5122 77.6839C87.9277 78.3356 88.2743 79.0494 88.5415 79.8046C88.6743 80.177 88.7863 80.565 88.8743 80.9581C89.3519 83.0185 89.2381 85.2599 88.5449 87.4392C88.4363 87.7806 88.3139 88.1203 88.1811 88.4496C87.8932 89.1651 87.5398 89.8703 87.1294 90.5496C86.9208 90.8927 86.7139 91.21 86.4932 91.5203C85.707 92.629 84.7639 93.6445 83.6914 94.5411C80.8086 96.9497 77.2723 98.2773 73.7326 98.2773ZM77.7051 73.3821C74.3482 73.3821 70.9878 74.6459 68.2446 76.939C65.2377 79.4512 63.3549 82.9219 63.0825 86.4582C62.8618 89.2996 63.7152 91.972 65.4825 93.9859C67.4687 96.2532 70.3998 97.5015 73.7326 97.5015C77.0896 97.5015 80.45 96.2376 83.1931 93.9445C84.2156 93.091 85.1121 92.1238 85.8604 91.0703C86.069 90.7755 86.2673 90.4755 86.4656 90.1479C86.8535 89.5048 87.188 88.8358 87.4622 88.1582C87.588 87.8478 87.7036 87.5271 87.8053 87.2047C88.4553 85.1581 88.5639 83.0581 88.1174 81.1305C88.0363 80.7667 87.9329 80.4081 87.8105 80.065C87.5622 79.3632 87.2415 78.7029 86.8587 78.1011C86.638 77.7546 86.3915 77.4166 86.1277 77.0994C86.0708 77.0287 86.0156 76.9632 85.9587 76.8977C83.969 74.6304 81.0379 73.3821 77.7051 73.3821Z" fill="#F3F3F3"/>
<path d="M74.2057 82.8704C74.1712 82.7722 74.1281 82.679 74.0695 82.5911C74.0333 82.5308 73.9901 82.4739 73.9419 82.4187C73.6505 82.0877 73.2263 81.9204 72.7746 81.9204C72.7384 81.9204 72.7022 81.9221 72.6643 81.9239C72.2453 81.948 71.8125 82.1135 71.447 82.4187C70.9849 82.8049 70.7332 83.3308 70.7194 83.8342C70.7091 84.1963 70.8211 84.5463 71.0642 84.8239C71.3556 85.1549 71.7798 85.3222 72.2315 85.3222C72.6832 85.3222 73.1608 85.1567 73.5574 84.8239C73.7453 84.6653 73.9005 84.486 74.0177 84.2911C74.0729 84.2015 74.1177 84.1084 74.1574 84.0118C74.3126 83.6325 74.3315 83.2273 74.2057 82.8704Z" fill="#F3F3F3"/>
<path d="M72.7945 79.8131C72.7341 79.6407 72.6531 79.4769 72.5548 79.3217C72.4876 79.2165 72.4151 79.1165 72.3307 79.02C71.8169 78.4337 71.0668 78.1406 70.272 78.1406C69.5461 78.1406 68.784 78.3837 68.1237 78.8699C68.0599 78.9182 67.9961 78.9665 67.934 79.0182C66.5323 80.1872 66.2306 82.0872 67.2582 83.258C67.3047 83.3097 67.3513 83.3597 67.4013 83.4062C67.9047 83.8924 68.5909 84.1338 69.3168 84.1338C69.7823 84.1338 70.2651 84.0338 70.7255 83.8338C71.0513 83.6924 71.3651 83.4993 71.6565 83.258C71.9875 82.9786 72.26 82.6614 72.4651 82.32C72.5427 82.1907 72.6117 82.0579 72.6686 81.9234C72.6824 81.8907 72.6962 81.8597 72.7082 81.8269C72.9807 81.1562 73.0134 80.4424 72.7945 79.8131Z" fill="#F3F3F3"/>
<path d="M130.08 130.762H63.9567L60.5859 126.167H126.046L130.08 130.762Z" fill="#B5B5B5"/>
<path d="M130.077 131.15H63.9551C63.831 131.15 63.7154 131.091 63.643 130.991L60.2706 126.397C60.1843 126.279 60.1706 126.122 60.2378 125.991C60.3033 125.86 60.4378 125.779 60.5844 125.779H126.044C126.156 125.779 126.261 125.828 126.335 125.912L130.37 130.507C130.47 130.621 130.494 130.785 130.432 130.922C130.367 131.062 130.229 131.15 130.077 131.15ZM64.1499 130.374H129.218L125.865 126.555H61.3464L64.1499 130.374Z" fill="#F3F3F3"/>
<path d="M121.922 77.9287C122.507 77.9287 122.905 78.3839 122.815 78.9477C122.726 79.508 122.181 79.9632 121.598 79.9632H95.2113C95.1044 79.2753 94.9526 78.5925 94.7578 77.9287H121.922Z" fill="#B5B5B5"/>
<path d="M121.596 80.3514H95.2089C95.0175 80.3514 94.8554 80.2117 94.8261 80.0221C94.7227 79.3514 94.5744 78.6841 94.383 78.0376C94.3485 77.9203 94.3709 77.7927 94.4451 77.6962C94.5175 77.5979 94.633 77.541 94.7554 77.541H121.921C122.318 77.541 122.683 77.7031 122.923 77.9841C123.161 78.2634 123.259 78.6272 123.197 79.0083C123.077 79.7617 122.373 80.3514 121.596 80.3514ZM95.5382 79.5755H121.596C121.989 79.5755 122.371 79.26 122.43 78.8859C122.454 78.7324 122.42 78.591 122.332 78.4876C122.239 78.3772 122.092 78.3169 121.92 78.3169H95.2641C95.3727 78.7324 95.4641 79.1531 95.5382 79.5755Z" fill="#B5B5B5"/>
<path d="M123.578 67.5684C124.162 67.5684 124.56 68.0235 124.471 68.5873C124.381 69.1477 123.836 69.6029 123.253 69.6029H95.5134C94.9306 69.6029 94.5323 69.1477 94.622 68.5873C94.7116 68.0253 95.2547 67.5684 95.8375 67.5684H123.578Z" fill="#B5B5B5"/>
<path d="M123.251 69.9908H95.5104C95.1139 69.9908 94.7501 69.8305 94.5104 69.5494C94.2725 69.2701 94.1759 68.908 94.2363 68.527C94.357 67.7735 95.0587 67.1821 95.8346 67.1821H123.575C123.971 67.1821 124.337 67.3442 124.576 67.6252C124.814 67.9046 124.913 68.2684 124.851 68.6494C124.732 69.4011 124.028 69.9908 123.251 69.9908ZM95.8346 67.9563C95.4432 67.9563 95.0621 68.2735 95.0018 68.6477C94.9777 68.8011 95.0121 68.9425 95.1001 69.046C95.1932 69.1546 95.338 69.2149 95.5104 69.2149H123.251C123.644 69.2149 124.026 68.8994 124.085 68.5253C124.109 68.3718 124.075 68.2304 123.987 68.127C123.894 68.0166 123.747 67.9563 123.575 67.9563H95.8346Z" fill="#B5B5B5"/>
<path d="M116.962 109.014C117.546 109.014 117.945 109.469 117.855 110.03C117.765 110.592 117.221 111.049 116.636 111.049H75.7165C75.1354 111.049 74.7354 110.593 74.8251 110.03C74.9147 109.469 75.4596 109.014 76.0406 109.014H116.962Z" fill="#B5B5B5"/>
<path d="M116.642 111.436H75.7203C75.3255 111.436 74.9617 111.276 74.722 110.995C74.4841 110.716 74.3858 110.352 74.4479 109.969C74.5686 109.216 75.2703 108.626 76.0462 108.626H116.966C117.362 108.626 117.728 108.788 117.968 109.069C118.205 109.348 118.302 109.71 118.242 110.092C118.123 110.845 117.419 111.436 116.642 111.436ZM76.0444 109.402C75.6531 109.402 75.272 109.717 75.2117 110.092C75.1875 110.245 75.222 110.388 75.3099 110.492C75.403 110.602 75.5479 110.662 75.7186 110.662H116.64C117.033 110.662 117.416 110.345 117.474 109.971C117.499 109.819 117.464 109.678 117.376 109.574C117.283 109.464 117.137 109.404 116.964 109.404H76.0444V109.402Z" fill="#B5B5B5"/>
<path d="M99.5622 85.8908C99.5312 85.6925 99.4967 85.4943 99.4588 85.2977C99.4553 85.2787 99.4519 85.2598 99.4484 85.2408C99.4415 85.2046 99.4312 85.1684 99.4243 85.1305C99.3915 84.9701 99.3553 84.8098 99.3174 84.6511C99.3036 84.5925 99.2898 84.5322 99.2743 84.4735C99.2226 84.2666 99.1674 84.0615 99.1088 83.858C99.0277 83.5804 98.9346 83.3063 98.8381 83.0339C98.826 82.9994 98.8174 82.9649 98.8036 82.9304C98.7915 82.8942 98.7743 82.8597 98.7622 82.8252C98.6708 82.577 98.5743 82.3321 98.4691 82.089C98.4605 82.0666 98.4518 82.0459 98.4415 82.0235C98.3277 81.7632 98.2036 81.5063 98.076 81.2511C98.0605 81.2218 98.0484 81.1925 98.0346 81.1631C98.0139 81.1218 97.988 81.0804 97.9674 81.039C97.8794 80.8718 97.788 80.708 97.6949 80.5424C97.6553 80.4752 97.6191 80.4062 97.5777 80.339C97.4449 80.1149 97.307 79.8924 97.1604 79.6735C97.1604 79.6717 97.1587 79.6717 97.1587 79.67C97.0363 79.4873 96.9104 79.3062 96.7794 79.1269L92.4311 73.1992C92.5638 73.3785 92.6897 73.5613 92.8138 73.7458C92.9604 73.9648 93.0983 74.1872 93.2311 74.4113C93.2707 74.4786 93.3087 74.5475 93.3483 74.6148C93.4414 74.7786 93.5328 74.9441 93.6207 75.1096C93.6587 75.1803 93.6949 75.251 93.7311 75.3217C93.8604 75.5768 93.9828 75.8337 94.0966 76.0941C94.1052 76.1148 94.1138 76.1372 94.1225 76.1596C94.2276 76.4027 94.3242 76.6476 94.4156 76.8958C94.4414 76.9648 94.4673 77.0355 94.4914 77.1045C94.588 77.3769 94.6794 77.651 94.7604 77.9286C94.8207 78.1321 94.8742 78.3372 94.9259 78.5441C94.9414 78.6045 94.9552 78.6631 94.969 78.7234C95.007 78.8821 95.0414 79.0407 95.0742 79.201C95.0863 79.2579 95.0983 79.3131 95.1087 79.37C95.1466 79.5666 95.1828 79.7648 95.2121 79.9631C95.6328 82.6649 95.3863 85.5167 94.5035 88.2909C94.288 88.9753 94.0294 89.6547 93.7362 90.3254C93.6759 90.4633 93.6121 90.5995 93.55 90.7357C93.5 90.8426 93.45 90.9495 93.3983 91.0564C93.3552 91.1443 93.3121 91.234 93.269 91.3219C93.2156 91.4288 93.1604 91.534 93.1052 91.6409C93.0604 91.7288 93.0138 91.8151 92.9673 91.9013C92.9104 92.0082 92.8518 92.1133 92.7914 92.2202C92.7431 92.3064 92.6949 92.3909 92.6466 92.4771C92.5845 92.5823 92.5224 92.6892 92.4586 92.7944C92.4121 92.872 92.3673 92.9478 92.319 93.0254C92.1535 93.2927 91.9828 93.5582 91.8052 93.8203C91.7707 93.872 91.7345 93.9237 91.6983 93.9772C91.5155 94.2444 91.3259 94.5082 91.1293 94.7703C91.1052 94.8013 91.081 94.8323 91.0586 94.8617C90.9017 95.0668 90.7414 95.2703 90.5776 95.472C90.5328 95.5272 90.4879 95.5824 90.4414 95.6393C90.2552 95.8634 90.0638 96.0875 89.8672 96.3065C89.8362 96.341 89.8051 96.3737 89.7741 96.4082C89.6138 96.5858 89.45 96.76 89.2827 96.9341C89.2276 96.9927 89.1707 97.0496 89.1138 97.1065C88.9379 97.2858 88.7569 97.4651 88.5741 97.6393C88.5482 97.6651 88.5224 97.691 88.4965 97.7151C88.3862 97.8186 88.2741 97.9203 88.162 98.0238C88.1017 98.0789 88.0413 98.1358 87.9793 98.191C87.8034 98.3479 87.6258 98.5014 87.4448 98.6548C87.2189 98.8445 86.9948 99.0238 86.7723 99.1979C86.7568 99.21 86.7413 99.2221 86.7258 99.2341C86.5172 99.3962 86.3103 99.5514 86.1034 99.7031C86.0689 99.729 86.0327 99.7548 85.9982 99.7807C85.812 99.9152 85.6258 100.046 85.4396 100.172C85.1792 100.35 84.9171 100.522 84.6551 100.688C84.3964 100.85 84.1361 101.005 83.8723 101.155C83.8033 101.195 83.7344 101.231 83.6654 101.27C83.4344 101.4 83.2033 101.526 82.9706 101.646C82.8826 101.691 82.7947 101.738 82.7068 101.782C82.4516 101.912 82.1947 102.034 81.9361 102.153C81.8895 102.174 81.8447 102.196 81.7981 102.217C81.7378 102.245 81.6757 102.27 81.6154 102.296C81.4464 102.37 81.2774 102.445 81.1067 102.514C81.0222 102.548 80.9378 102.581 80.8533 102.615C80.705 102.674 80.555 102.732 80.4067 102.789C80.3171 102.824 80.2257 102.857 80.136 102.889C79.9895 102.943 79.8429 102.993 79.6964 103.043C79.6067 103.074 79.517 103.103 79.4257 103.132C79.305 103.172 79.1826 103.208 79.0619 103.246C78.9136 103.291 78.7636 103.336 78.6153 103.379C78.4998 103.412 78.3843 103.443 78.267 103.474C78.1187 103.514 77.9722 103.551 77.8239 103.588C77.7067 103.617 77.5894 103.645 77.4739 103.67C77.3256 103.705 77.1774 103.736 77.0291 103.767C76.9136 103.791 76.7963 103.815 76.6808 103.836C76.5308 103.864 76.3808 103.891 76.2308 103.915C76.117 103.934 76.0015 103.953 75.8877 103.97C75.7342 103.993 75.5808 104.014 75.4291 104.034C75.3187 104.048 75.2066 104.064 75.0963 104.077C74.9359 104.096 74.7773 104.11 74.6187 104.124C74.5152 104.132 74.4101 104.145 74.3066 104.151C74.1308 104.165 73.9566 104.174 73.7825 104.182C73.6945 104.188 73.6083 104.193 73.5204 104.196C73.2583 104.207 72.998 104.212 72.7376 104.212C69.7703 104.212 66.9065 103.562 64.3944 102.262C63.5737 101.838 62.7909 101.343 62.0547 100.779L66.403 106.707C67.1393 107.27 67.922 107.764 68.7427 108.189C71.2531 109.489 74.1187 110.139 77.0842 110.139C77.3446 110.139 77.6049 110.134 77.867 110.124C77.955 110.121 78.0412 110.114 78.1291 110.11C78.3032 110.102 78.4791 110.093 78.6532 110.079C78.7567 110.071 78.8601 110.06 78.9636 110.052C79.1239 110.038 79.2826 110.022 79.4429 110.005C79.5533 109.993 79.6636 109.977 79.7739 109.964C79.9274 109.943 80.0809 109.924 80.2343 109.9C80.3481 109.883 80.4636 109.864 80.5774 109.845C80.7274 109.819 80.8774 109.793 81.0274 109.765C81.1429 109.743 81.2602 109.721 81.3757 109.696C81.524 109.665 81.6723 109.634 81.8205 109.6C81.9378 109.574 82.0533 109.546 82.1688 109.517C82.3171 109.481 82.4654 109.443 82.6136 109.403C82.7292 109.372 82.8447 109.341 82.9602 109.308C83.1102 109.265 83.2585 109.221 83.4085 109.176C83.4826 109.153 83.5585 109.133 83.6326 109.11C83.6792 109.095 83.7257 109.079 83.7723 109.064C83.8619 109.034 83.9516 109.003 84.043 108.974C84.1895 108.924 84.3361 108.874 84.4826 108.821C84.5723 108.788 84.6637 108.755 84.7533 108.721C84.9033 108.665 85.0516 108.607 85.1999 108.546C85.2844 108.512 85.3689 108.479 85.4534 108.445C85.624 108.374 85.793 108.302 85.962 108.227C86.0223 108.2 86.0844 108.176 86.1447 108.148C86.1551 108.143 86.1672 108.138 86.1775 108.134C86.212 108.119 86.2465 108.1 86.281 108.084C86.5396 107.965 86.7965 107.843 87.0517 107.714C87.1396 107.669 87.2275 107.624 87.3155 107.577C87.5482 107.457 87.781 107.331 88.0103 107.202C88.0603 107.174 88.1103 107.15 88.1586 107.12C88.1775 107.11 88.1982 107.096 88.2172 107.086C88.4793 106.936 88.7413 106.781 89 106.619C89.2638 106.453 89.5241 106.281 89.7845 106.103C89.8086 106.088 89.831 106.072 89.8552 106.057C90.0172 105.945 90.181 105.829 90.3431 105.712C90.3776 105.686 90.4138 105.66 90.4483 105.634C90.6552 105.483 90.8621 105.327 91.069 105.165C91.0845 105.153 91.1 105.141 91.1155 105.129C91.2259 105.043 91.3379 104.955 91.4483 104.864C91.5604 104.772 91.6741 104.679 91.7862 104.584C91.9673 104.431 92.1448 104.277 92.3207 104.12C92.3828 104.065 92.4414 104.01 92.5017 103.955C92.6138 103.851 92.7276 103.75 92.838 103.645C92.8431 103.639 92.85 103.634 92.8552 103.629C92.8759 103.61 92.8949 103.589 92.9138 103.57C93.0983 103.395 93.2776 103.215 93.4552 103.036C93.5121 102.979 93.5673 102.92 93.6225 102.864C93.7897 102.689 93.9535 102.515 94.1138 102.338C94.138 102.312 94.1638 102.286 94.1863 102.26C94.1932 102.253 94.1983 102.245 94.2052 102.238C94.4018 102.017 94.5932 101.795 94.7794 101.57C94.8259 101.515 94.8708 101.46 94.9156 101.405C95.0794 101.203 95.2414 101 95.3966 100.795C95.4139 100.77 95.4346 100.748 95.4518 100.724C95.457 100.717 95.4621 100.71 95.4673 100.703C95.6639 100.441 95.8535 100.177 96.0363 99.91C96.0725 99.8583 96.107 99.8066 96.1432 99.7548C96.3208 99.491 96.4932 99.2255 96.6587 98.9583C96.6691 98.941 96.6811 98.9255 96.6915 98.9083C96.7277 98.8479 96.7622 98.7876 96.7984 98.7272C96.8622 98.6221 96.9242 98.5169 96.9863 98.41C97.0363 98.3238 97.0829 98.2376 97.1311 98.1531C97.1898 98.0479 97.2484 97.9427 97.3053 97.8358C97.3518 97.7496 97.3984 97.6617 97.4432 97.5738C97.4984 97.4686 97.5536 97.3617 97.6053 97.2548C97.6501 97.1669 97.6932 97.0789 97.7363 96.9893C97.788 96.8824 97.838 96.7755 97.888 96.6686C97.9087 96.622 97.9329 96.5772 97.9536 96.5306C97.9949 96.4393 98.0346 96.3496 98.0743 96.2582C98.3691 95.5875 98.626 94.9082 98.8415 94.2237C99.7364 91.4461 99.9829 88.5943 99.5622 85.8908Z" fill="#2C25B8"/>
<path d="M77.0841 110.527C74.0289 110.527 71.084 109.838 68.5633 108.533C67.7167 108.095 66.9115 107.584 66.165 107.014C66.1357 106.991 66.1098 106.965 66.0874 106.934L61.739 101.007C61.6253 100.851 61.6425 100.636 61.7804 100.5C61.9184 100.365 62.1339 100.351 62.2873 100.469C62.996 101.012 63.7632 101.498 64.5701 101.915C66.9805 103.164 69.803 103.822 72.7341 103.822C72.9772 103.822 73.2358 103.817 73.5013 103.807C73.5513 103.805 73.5996 103.801 73.6496 103.798L73.7582 103.791C73.9306 103.783 74.1013 103.774 74.2737 103.76C74.341 103.755 74.4082 103.748 74.4737 103.743L74.5789 103.733C74.7393 103.719 74.8944 103.703 75.0479 103.686C75.1289 103.677 75.21 103.665 75.291 103.655L75.3755 103.645C75.5255 103.626 75.6755 103.605 75.8272 103.583C75.9272 103.567 76.0289 103.55 76.1289 103.533L76.1634 103.527C76.31 103.503 76.4583 103.477 76.6048 103.45C76.7186 103.427 76.8324 103.405 76.9479 103.381C77.0928 103.351 77.2393 103.319 77.3841 103.286C77.4997 103.26 77.6135 103.233 77.729 103.205C77.8738 103.169 78.0204 103.133 78.1652 103.093C78.279 103.062 78.3928 103.033 78.5066 103C78.6531 102.958 78.7997 102.914 78.9462 102.869L78.9945 102.853C79.098 102.822 79.2014 102.789 79.3031 102.757C79.3928 102.727 79.4807 102.698 79.5687 102.669C79.7135 102.62 79.8566 102.57 80.0014 102.517C80.0894 102.484 80.179 102.453 80.2669 102.419C80.4135 102.364 80.5601 102.307 80.7066 102.248L80.7739 102.222C80.8342 102.198 80.8963 102.174 80.9566 102.15C81.1239 102.081 81.2894 102.008 81.4566 101.936L81.5359 101.901C81.5687 101.888 81.6032 101.872 81.6359 101.858L81.7704 101.795C82.0187 101.681 82.2739 101.558 82.5273 101.431C82.6135 101.388 82.7015 101.343 82.7877 101.298C83.0153 101.181 83.2446 101.057 83.4722 100.929L83.5567 100.882C83.5963 100.86 83.636 100.839 83.6756 100.817C83.9584 100.655 84.2101 100.505 84.4446 100.357C84.6843 100.207 84.936 100.041 85.217 99.8497C85.3998 99.7238 85.5843 99.5962 85.767 99.4635L85.8705 99.3876C86.0946 99.2238 86.2946 99.0721 86.4826 98.9255L86.5291 98.8876C86.7619 98.7048 86.9791 98.529 87.1895 98.3531C87.3671 98.2031 87.5412 98.0514 87.7136 97.8979C87.7498 97.8652 87.7843 97.8324 87.8205 97.7997L87.9378 97.6928C88.0326 97.6065 88.1291 97.5186 88.2222 97.4307L88.2998 97.3565C88.474 97.1893 88.6481 97.0186 88.8326 96.8307C88.8878 96.7738 88.943 96.7169 88.9981 96.66C89.1619 96.4893 89.324 96.3169 89.4809 96.1427L89.5723 96.0445C89.755 95.841 89.9395 95.6255 90.1378 95.3875L90.2723 95.2237C90.443 95.0151 90.5982 94.8186 90.7447 94.6237L90.8154 94.5341C90.9947 94.2961 91.1775 94.041 91.374 93.7548L91.4792 93.6013C91.6585 93.3375 91.8275 93.0737 91.9844 92.8203C92.024 92.7547 92.0637 92.6892 92.1033 92.6237L92.1206 92.5944C92.1827 92.4909 92.2447 92.3875 92.3051 92.2823C92.3482 92.2082 92.3896 92.134 92.4309 92.0599L92.4482 92.0289C92.5068 91.9254 92.5637 91.8202 92.6206 91.7168C92.6672 91.6323 92.712 91.5461 92.7568 91.4599C92.8103 91.3564 92.8637 91.2513 92.9172 91.1478C92.9603 91.0616 93.0034 90.9754 93.0447 90.8875C93.0947 90.7823 93.1447 90.6788 93.193 90.5737L93.2085 90.5375C93.2654 90.415 93.3223 90.2926 93.3758 90.1702C93.6672 89.5047 93.9223 88.834 94.1292 88.1736C94.9931 85.4632 95.2327 82.646 94.8241 80.0235C94.7965 79.8442 94.7637 79.6545 94.7224 79.4442L94.6879 79.2787C94.6551 79.1218 94.6224 78.9666 94.5844 78.8114L94.5413 78.6355C94.4844 78.4062 94.4327 78.2148 94.3793 78.0373C94.3086 77.7976 94.2258 77.5424 94.1155 77.2321C94.0913 77.1648 94.0672 77.0959 94.0413 77.0286C93.943 76.7648 93.8499 76.5303 93.7551 76.3114L93.7292 76.2476C93.6292 76.0183 93.5137 75.7734 93.3723 75.4958C93.3379 75.4269 93.3016 75.3579 93.2654 75.2889C93.1792 75.1269 93.0913 74.9665 92.9999 74.8062L92.9637 74.7441C92.9378 74.6993 92.912 74.6527 92.8844 74.6079C92.7396 74.3648 92.6068 74.1527 92.4775 73.9596C92.3568 73.7786 92.2309 73.5992 92.1051 73.4268C91.9792 73.2544 92.0154 73.0113 92.1878 72.8854C92.3603 72.7596 92.6034 72.7958 92.7292 72.9682L92.7309 72.9699L97.0776 78.8959C97.2103 79.0769 97.3414 79.2649 97.4672 79.4528C97.469 79.4562 97.4707 79.4597 97.4741 79.4631C97.6103 79.6683 97.7483 79.889 97.8983 80.139C97.9276 80.1873 97.9535 80.2356 97.981 80.2821L98.0172 80.3459C98.1138 80.5149 98.2069 80.6839 98.2966 80.8545L98.3207 80.8994C98.3362 80.927 98.3517 80.9545 98.3655 80.9821C98.3759 81.0011 98.3845 81.0218 98.3931 81.0408L98.4069 81.0718C98.5535 81.3614 98.6759 81.6201 98.7828 81.8649L98.8104 81.9304C98.9121 82.1684 99.0104 82.4149 99.1121 82.6873L99.1259 82.7235C99.1362 82.7477 99.1466 82.7718 99.1552 82.7977C99.1638 82.8201 99.1707 82.8442 99.1776 82.8684L99.1897 82.9046C99.3035 83.2235 99.3914 83.4925 99.4655 83.7477C99.5207 83.9356 99.5742 84.1356 99.6362 84.377C99.6483 84.4236 99.6587 84.4718 99.6707 84.5184L99.6811 84.5598C99.7207 84.7236 99.7569 84.8874 99.7897 85.0512L99.8 85.0943C99.8052 85.1167 99.8104 85.1391 99.8155 85.1632L99.8259 85.2236C99.869 85.4477 99.9035 85.646 99.9328 85.8322C100.359 88.5736 100.11 91.5133 99.2104 94.3358C98.9948 95.0186 98.731 95.7169 98.4276 96.4082C98.3879 96.4996 98.3466 96.5927 98.3052 96.6841C98.2914 96.7134 98.2793 96.741 98.2655 96.7686L98.2379 96.8255C98.1879 96.9341 98.1362 97.0427 98.0845 97.1496C98.0414 97.241 97.9965 97.3307 97.9517 97.4203C97.8983 97.529 97.8431 97.6359 97.7862 97.7445C97.7397 97.8341 97.6931 97.9221 97.6448 98.0117C97.5862 98.1204 97.5276 98.2273 97.4672 98.3342L97.4414 98.3807C97.4017 98.4531 97.3603 98.5255 97.319 98.5962C97.2569 98.7048 97.1931 98.8117 97.1276 98.9186L97.0827 98.9928C97.0621 99.029 97.0396 99.0652 97.019 99.1014L96.9948 99.1393C96.8224 99.4169 96.6465 99.6893 96.462 99.9618L96.3534 100.119C96.1483 100.417 95.9586 100.681 95.7741 100.926L95.7017 101.02C95.55 101.219 95.3862 101.429 95.212 101.641L95.1948 101.664C95.1551 101.712 95.1155 101.762 95.0741 101.81C94.8689 102.057 94.6793 102.279 94.4896 102.489L94.4689 102.514C94.4551 102.529 94.4396 102.546 94.4241 102.562L94.3948 102.593C94.231 102.772 94.0655 102.95 93.8965 103.126C93.8396 103.184 93.7827 103.243 93.7258 103.301C93.5344 103.496 93.3534 103.674 93.1758 103.845L93.1551 103.865C93.1413 103.879 93.1292 103.891 93.1154 103.905C93.1137 103.907 93.1016 103.917 93.0999 103.919C93.0034 104.01 92.9051 104.1 92.8068 104.189L92.6878 104.3C92.6499 104.334 92.612 104.37 92.5723 104.405C92.3947 104.564 92.2137 104.72 92.0292 104.876C91.9137 104.972 91.7999 105.067 91.6861 105.158C91.5723 105.25 91.4602 105.339 91.3482 105.427L91.3016 105.465C91.1051 105.619 90.8982 105.776 90.6706 105.941L90.5637 106.02C90.3982 106.139 90.2326 106.258 90.0671 106.372C90.0516 106.383 90.0361 106.393 90.0206 106.403L89.9947 106.42C89.7068 106.617 89.4447 106.788 89.1964 106.945C88.9499 107.1 88.6895 107.255 88.4016 107.421L88.3412 107.457C88.3119 107.474 88.2809 107.489 88.2516 107.505C88.2309 107.515 88.2102 107.526 88.1912 107.538C87.955 107.671 87.7171 107.798 87.4843 107.919C87.3946 107.965 87.305 108.012 87.2153 108.057C86.9515 108.189 86.6877 108.315 86.4326 108.433L86.3929 108.452C86.3705 108.462 86.3481 108.474 86.3257 108.483L86.3015 108.493C86.255 108.514 86.217 108.531 86.1791 108.546L86.1067 108.577C85.9343 108.653 85.7619 108.727 85.5894 108.798C85.5291 108.824 85.467 108.848 85.405 108.872L85.3326 108.902C85.1808 108.962 85.0291 109.021 84.8774 109.077C84.786 109.112 84.6946 109.145 84.6032 109.179C84.4549 109.233 84.3049 109.284 84.1567 109.336C84.0618 109.367 83.9722 109.398 83.8825 109.427L83.8239 109.446C83.7963 109.457 83.767 109.465 83.7394 109.474C83.6946 109.488 83.6498 109.502 83.6032 109.514L83.5118 109.541C83.3601 109.588 83.2084 109.633 83.0566 109.676C82.9394 109.708 82.8222 109.741 82.7049 109.772C82.5532 109.812 82.4032 109.852 82.2515 109.888C82.1342 109.917 82.0152 109.945 81.8963 109.972C81.7446 110.007 81.5946 110.04 81.4428 110.071C81.3239 110.095 81.2066 110.119 81.0876 110.141C80.9359 110.171 80.7825 110.196 80.629 110.222L80.5894 110.229C80.4859 110.246 80.3842 110.264 80.2807 110.279C80.1238 110.303 79.9687 110.324 79.8118 110.343L79.7273 110.353C79.6428 110.364 79.5583 110.376 79.4756 110.384C79.3135 110.403 79.1514 110.417 78.9893 110.433L78.8859 110.443C78.8135 110.45 78.7428 110.457 78.6704 110.462C78.4911 110.476 78.3135 110.484 78.1359 110.493L78.0359 110.498C77.9807 110.502 77.9255 110.505 77.8704 110.507C77.6066 110.522 77.3376 110.527 77.0841 110.527ZM66.6822 106.431C67.3788 106.96 68.1323 107.434 68.9219 107.843C71.3323 109.091 74.1548 109.75 77.0859 109.75C77.329 109.75 77.5876 109.745 77.8531 109.734C77.9031 109.733 77.9531 109.729 78.0031 109.726L78.11 109.719C78.2824 109.71 78.4531 109.702 78.6255 109.688C78.6928 109.683 78.76 109.676 78.8273 109.671L78.9324 109.66C79.0911 109.646 79.2462 109.631 79.4031 109.614C79.4824 109.605 79.5618 109.595 79.6428 109.584L79.729 109.572C79.879 109.553 80.0307 109.533 80.1807 109.51C80.279 109.495 80.379 109.479 80.4773 109.462L80.5169 109.455C80.6652 109.431 80.8118 109.405 80.9583 109.377C81.0721 109.355 81.1859 109.333 81.3014 109.308C81.448 109.279 81.5928 109.246 81.7394 109.214C81.8532 109.188 81.9687 109.16 82.0825 109.133C82.229 109.096 82.3739 109.058 82.5204 109.021C82.6342 108.989 82.748 108.96 82.8601 108.927C83.0066 108.886 83.1532 108.841 83.2998 108.796L83.4032 108.765C83.4429 108.753 83.4808 108.743 83.5187 108.731L83.6567 108.684C83.7429 108.657 83.8308 108.627 83.917 108.598C84.0653 108.548 84.2101 108.498 84.3532 108.446C84.4412 108.414 84.5308 108.383 84.6187 108.348C84.7653 108.293 84.9118 108.236 85.0584 108.177L85.1325 108.148C85.1912 108.126 85.2481 108.102 85.3067 108.079C85.4739 108.01 85.6412 107.938 85.8067 107.865L85.886 107.831C85.9205 107.817 85.9532 107.802 85.986 107.788L86.0619 107.753C86.0826 107.743 86.1015 107.734 86.1222 107.724C86.3688 107.61 86.6239 107.488 86.8808 107.36C86.9688 107.317 87.055 107.272 87.1412 107.227C87.3671 107.11 87.5964 106.986 87.8257 106.858C87.8516 106.845 87.8774 106.831 87.9033 106.817C87.9257 106.805 87.9481 106.793 87.9705 106.781L88.0274 106.746C88.3085 106.586 88.5602 106.434 88.7981 106.286C89.0378 106.136 89.2912 105.97 89.5705 105.779L89.6395 105.734C89.7999 105.624 89.9602 105.51 90.1206 105.395L90.2257 105.317C90.4464 105.155 90.6464 105.005 90.8361 104.855L90.8826 104.817C90.9895 104.733 91.0999 104.646 91.2102 104.557C91.3206 104.467 91.4326 104.376 91.543 104.283C91.7206 104.133 91.8947 103.981 92.0671 103.827C92.1033 103.796 92.1378 103.764 92.1706 103.733L92.2947 103.619C92.3878 103.533 92.4827 103.448 92.574 103.36C92.5758 103.358 92.5844 103.35 92.5878 103.348L92.6516 103.286C92.8241 103.122 92.9982 102.95 93.1844 102.76C93.2396 102.703 93.2947 102.646 93.3499 102.589C93.5137 102.419 93.6758 102.246 93.8327 102.072L93.9241 101.972C94.1051 101.769 94.2913 101.555 94.4896 101.315C94.5293 101.269 94.5672 101.222 94.6051 101.174L94.6241 101.151C94.7913 100.946 94.9517 100.743 95.0982 100.551L95.1689 100.46C95.3465 100.226 95.5293 99.9704 95.7276 99.6824L95.831 99.5307C96.0103 99.2669 96.1793 99.0031 96.3379 98.7479L96.3689 98.6997C96.3879 98.6686 96.4069 98.6359 96.4258 98.6031L96.4741 98.5221C96.5362 98.4186 96.5983 98.3152 96.6586 98.2117C96.6983 98.1428 96.7379 98.0738 96.7758 98.0031L96.8017 97.9566C96.8586 97.8531 96.9172 97.7497 96.9724 97.6462C97.0189 97.56 97.0638 97.4755 97.1086 97.3893C97.162 97.2858 97.2155 97.1824 97.2672 97.0772C97.3103 96.9893 97.3534 96.9031 97.3965 96.8152C97.4465 96.7117 97.4965 96.6065 97.5448 96.5014L97.6103 96.3651C97.65 96.2772 97.6897 96.1893 97.7293 96.0996C98.0224 95.4324 98.2759 94.7617 98.4828 94.103C99.3466 91.3926 99.5862 88.5754 99.1776 85.9529C99.15 85.777 99.1173 85.5891 99.0759 85.3753L99.0431 85.2115C99.0104 85.0546 98.9759 84.8994 98.9397 84.7443L98.9293 84.7012C98.919 84.6581 98.9086 84.6132 98.8983 84.5701C98.8397 84.3391 98.7879 84.1477 98.7362 83.9701C98.6655 83.727 98.581 83.4718 98.4724 83.1666C98.4655 83.1442 98.4586 83.1253 98.4517 83.1046C98.4483 83.0925 98.4431 83.0787 98.4397 83.0666C98.4345 83.0529 98.4293 83.0408 98.4241 83.0287C98.4155 83.008 98.4069 82.9856 98.3983 82.9649C98.3017 82.7063 98.2086 82.4701 98.1121 82.2477L98.0862 82.1839C97.9862 81.9528 97.869 81.7063 97.7293 81.4304C97.7207 81.4132 97.7103 81.3925 97.7017 81.3735L97.6879 81.3425C97.6793 81.3252 97.669 81.3063 97.6586 81.289C97.6465 81.2683 97.6345 81.2459 97.6224 81.2235C97.5362 81.0597 97.4483 80.8994 97.3569 80.739L97.319 80.6718C97.2948 80.6287 97.269 80.5838 97.2431 80.5407C97.0983 80.2976 96.9655 80.0838 96.8362 79.8925C96.8345 79.8907 96.8327 79.8873 96.831 79.8838C96.712 79.7062 96.5879 79.5304 96.4638 79.3597L94.9793 77.3355C95.0379 77.5097 95.0879 77.67 95.1327 77.8235C95.1879 78.0114 95.2431 78.2114 95.3034 78.4528L95.3482 78.6355C95.3862 78.7993 95.4224 78.9614 95.4569 79.1252L95.4931 79.2976C95.5362 79.5183 95.5706 79.7166 95.6 79.9063C96.0258 82.6477 95.7758 85.5874 94.8775 88.4098C94.662 89.0943 94.3982 89.7926 94.0948 90.4823C94.0396 90.6099 93.9792 90.7375 93.9206 90.8651L93.9051 90.8995C93.8551 91.0082 93.8034 91.1168 93.7517 91.2254C93.7085 91.3151 93.6637 91.4047 93.6189 91.4961C93.5637 91.6047 93.5085 91.7133 93.4534 91.8202C93.4068 91.9082 93.3603 91.9978 93.3137 92.0858C93.2551 92.1944 93.1947 92.3013 93.1344 92.4099L93.1172 92.4409C93.0741 92.5185 93.031 92.5944 92.9861 92.672C92.9241 92.7806 92.8603 92.8875 92.7947 92.9944L92.7775 93.0237C92.7361 93.0927 92.6947 93.1616 92.6534 93.2289C92.4913 93.4927 92.3154 93.7651 92.1292 94.0392L92.0206 94.1979C91.8171 94.4944 91.6275 94.7582 91.4413 95.0048L91.3689 95.0979C91.2154 95.2996 91.0551 95.5031 90.8792 95.7186L90.7395 95.8876C90.5361 96.1341 90.3447 96.3548 90.155 96.5652L90.0602 96.6669C89.8964 96.8462 89.7309 97.0238 89.5602 97.2014C89.5033 97.26 89.4464 97.3186 89.3895 97.3772C89.1999 97.5703 89.0205 97.7479 88.8395 97.9203L88.7602 97.9979C88.6636 98.0893 88.5654 98.179 88.4654 98.2704L88.3533 98.3738C88.3136 98.41 88.2757 98.4462 88.236 98.4807C88.0585 98.6393 87.8774 98.7962 87.6929 98.9514C87.474 99.1342 87.2515 99.3152 87.0102 99.5031L86.9636 99.5411C86.7688 99.6928 86.5619 99.8497 86.3326 100.017L86.2257 100.096C86.036 100.234 85.8463 100.365 85.6584 100.495C85.3705 100.691 85.1084 100.862 84.8601 101.019C84.6153 101.172 84.3549 101.327 84.0653 101.495C84.0222 101.519 83.9791 101.543 83.9342 101.567L83.8549 101.612C83.6205 101.743 83.3825 101.872 83.148 101.993C83.0584 102.039 82.9687 102.086 82.8791 102.131C82.6153 102.264 82.3532 102.389 82.0963 102.507L82.0359 102.534C82.0101 102.546 81.9825 102.56 81.9566 102.572C81.9187 102.589 81.8808 102.605 81.8428 102.622L81.7687 102.653C81.5963 102.729 81.4239 102.803 81.2514 102.874C81.1877 102.9 81.1239 102.926 81.0583 102.951L80.9928 102.977C80.8411 103.038 80.6911 103.096 80.5376 103.153C80.4463 103.188 80.3549 103.22 80.2618 103.255C80.1135 103.308 79.9635 103.36 79.8152 103.41C79.7238 103.441 79.6325 103.472 79.5411 103.501C79.4342 103.536 79.3255 103.569 79.2187 103.601L79.1704 103.615C79.0186 103.662 78.8669 103.707 78.7152 103.75C78.598 103.783 78.479 103.815 78.3617 103.846C78.2117 103.886 78.0617 103.926 77.91 103.962C77.791 103.991 77.6721 104.019 77.5531 104.046C77.4031 104.081 77.2514 104.114 77.1014 104.145C76.9841 104.169 76.8652 104.193 76.7462 104.215C76.5927 104.245 76.441 104.27 76.2876 104.296L76.2531 104.301C76.1479 104.319 76.0427 104.336 75.9376 104.353C75.7807 104.377 75.6255 104.398 75.4703 104.417L75.3876 104.427C75.3013 104.439 75.2169 104.45 75.1324 104.46C74.972 104.479 74.8117 104.493 74.6513 104.508L74.5444 104.519C74.472 104.526 74.3996 104.533 74.3289 104.538C74.1513 104.551 73.9737 104.56 73.7961 104.569L73.6944 104.574C73.6393 104.577 73.5841 104.581 73.5289 104.583C73.253 104.593 72.9858 104.598 72.7323 104.598C69.6771 104.598 66.7322 103.908 64.2115 102.603C64.0201 102.505 63.8322 102.401 63.646 102.296L66.6822 106.431Z" fill="#F3F3F3"/>
<path d="M150.011 111.773C151.428 111.773 152.576 110.624 152.576 109.207C152.576 107.79 151.428 106.642 150.011 106.642C148.594 106.642 147.445 107.79 147.445 109.207C147.445 110.624 148.594 111.773 150.011 111.773Z" fill="#F3F3F3"/>
<path d="M42.1281 102.307C43.545 102.307 44.6936 101.158 44.6936 99.7413C44.6936 98.3244 43.545 97.1758 42.1281 97.1758C40.7111 97.1758 39.5625 98.3244 39.5625 99.7413C39.5625 101.158 40.7111 102.307 42.1281 102.307Z" fill="#F3F3F3"/>
<path d="M43.4113 104.381C43.9102 104.381 44.3147 103.977 44.3147 103.478C44.3147 102.979 43.9102 102.574 43.4113 102.574C42.9123 102.574 42.5078 102.979 42.5078 103.478C42.5078 103.977 42.9123 104.381 43.4113 104.381Z" fill="#F3F3F3"/>
<path d="M56.1359 70.0393C57.5528 70.0393 58.7014 68.8907 58.7014 67.4738C58.7014 66.0568 57.5528 64.9082 56.1359 64.9082C54.719 64.9082 53.5703 66.0568 53.5703 67.4738C53.5703 68.8907 54.719 70.0393 56.1359 70.0393Z" fill="#F3F3F3"/>
<path d="M59.13 65.8045C59.629 65.8045 60.0335 65.4 60.0335 64.901C60.0335 64.4021 59.629 63.9976 59.13 63.9976C58.6311 63.9976 58.2266 64.4021 58.2266 64.901C58.2266 65.4 58.6311 65.8045 59.13 65.8045Z" fill="#F3F3F3"/>
<path d="M156.601 56.5284C159.039 56.5284 161.015 54.5523 161.015 52.1146C161.015 49.6768 159.039 47.7007 156.601 47.7007C154.164 47.7007 152.188 49.6768 152.188 52.1146C152.188 54.5523 154.164 56.5284 156.601 56.5284Z" fill="#C2CCFC"/>
<path d="M152.188 49.9355C153.348 49.9355 154.289 48.9945 154.289 47.8337C154.289 46.6729 153.348 45.7319 152.188 45.7319C151.027 45.7319 150.086 46.6729 150.086 47.8337C150.086 48.9945 151.027 49.9355 152.188 49.9355Z" fill="#F3F3F3"/>
</svg>
