<svg preserveAspectRatio="none" width="100%" height="100%" overflow="visible" style="display: block;" viewBox="0 0 28.7114 28.7114" fill="none" xmlns="http://www.w3.org/2000/svg">
<g id="logo-88" clip-path="url(#clip0_0_234)">
<path id="Vector" fill-rule="evenodd" clip-rule="evenodd" d="M9.84412 0.361306C8.22451 0.361306 6.6713 0.988991 5.52608 2.10628L0 7.49754V9.96532C0 11.7088 0.767627 13.2773 1.99114 14.3668C0.767627 15.4563 0 17.0249 0 18.7684V21.2361L5.52608 26.6274C6.6713 27.7447 8.22451 28.3724 9.84412 28.3724C11.6312 28.3724 13.2389 27.6235 14.3557 26.4298C15.4724 27.6235 17.0802 28.3724 18.8672 28.3724C20.4868 28.3724 22.0401 27.7447 23.1853 26.6274L28.7114 21.2361V18.7684C28.7114 17.0249 27.9438 15.4563 26.7202 14.3668C27.9438 13.2773 28.7114 11.7088 28.7114 9.96532V7.49754L23.1853 2.10628C22.0401 0.988991 20.4868 0.361306 18.8672 0.361306C17.0802 0.361306 15.4724 1.11021 14.3557 2.30388C13.2389 1.11021 11.6312 0.361306 9.84412 0.361306ZM18.4892 14.3668C18.4204 14.3056 18.3529 14.2426 18.2867 14.178L14.3557 10.3429L10.4247 14.178C10.3585 14.2426 10.2909 14.3056 10.2221 14.3668C10.2909 14.4281 10.3585 14.4911 10.4247 14.5556L14.3557 18.3908L18.2867 14.5556C18.3529 14.4911 18.4204 14.4281 18.4892 14.3668ZM15.9507 21.2361V22.4147C15.9507 23.9861 17.2565 25.2601 18.8672 25.2601C19.6407 25.2601 20.3825 24.9603 20.9295 24.4267L25.5212 19.9469V18.7684C25.5212 17.1969 24.2154 15.923 22.6047 15.923C21.8313 15.923 21.0894 16.2228 20.5425 16.7564L15.9507 21.2361ZM12.7606 21.2361L8.16888 16.7564C7.62193 16.2228 6.88013 15.923 6.10663 15.923C4.4959 15.923 3.19015 17.1969 3.19015 18.7684V19.9469L7.78185 24.4267C8.3288 24.9603 9.07063 25.2601 9.84412 25.2601C11.4548 25.2601 12.7606 23.9861 12.7606 22.4147V21.2361ZM12.7606 6.319V7.49754L8.16888 11.9773C7.62193 12.5109 6.88013 12.8107 6.10663 12.8107C4.4959 12.8107 3.19015 11.5367 3.19015 9.96532V8.78675L7.78185 4.30703C8.3288 3.77343 9.07063 3.47365 9.84412 3.47365C11.4548 3.47365 12.7606 4.74755 12.7606 6.319ZM20.5425 11.9773L15.9507 7.49754V6.319C15.9507 4.74755 17.2565 3.47365 18.8672 3.47365C19.6407 3.47365 20.3825 3.77343 20.9295 4.30703L25.5212 8.78675V9.96532C25.5212 11.5367 24.2154 12.8107 22.6047 12.8107C21.8313 12.8107 21.0894 12.5109 20.5425 11.9773Z" fill="var(--fill-0, #4730F7)"/>
</g>
<defs>
<clipPath id="clip0_0_234">
<rect width="28.7114" height="28.7114" fill="white"/>
</clipPath>
</defs>
</svg>
